<svg
   xml:lang="en"
   freesewing="4.2.0"
   class="freesewing"
   width="1000mm"
   height="800mm"
   viewBox="0 0 999.99999 800"
   version="1.1"
   id="svg281"
   sodipodi:docname="freesewing-aaron-outline-only.svg"
   inkscape:version="1.2.2 (b0a84865, 2022-12-01)"
   xmlns:inkscape="http://www.inkscape.org/namespaces/inkscape"
   xmlns:sodipodi="http://sodipodi.sourceforge.net/DTD/sodipodi-0.dtd"
   xmlns="http://www.w3.org/2000/svg"
   xmlns:svg="http://www.w3.org/2000/svg">

  <g
     inkscape:groupmode="layer"
     id="layer1"
     inkscape:label="Layer 1"
     style="display:inline"
     transform="matrix(0.99945993,0,0,0.99945993,0.27070595,0.23021914)">
    <path
       class="fabric"
       id="fs-14"
       d="M 0,0 V 537.85 H 60 V 0 Z"
       transform="matrix(0,1.0005404,-1.0005404,0,598.14124,672.96971)" />
    <path
       class="fabric"
       id="fs-7"
       d="M 0,0 V 556.87 H 60 V 0 Z"
       transform="matrix(0,1.0005404,-1.0005404,0,598.14124,608.93514)"
       inkscape:label="fs-7" />
    <path
       class="fabric"
       id="fs-3-8"
       d="m 0,36 v 503 h 225.72 c 0,-157.3 -2.3,-265.59 -2.3,-265.59 -67.8,0 -104.7,-127.18 -73.79,-254.36 L 106.88,8.66 v 0 C 100.23,36 0,36 0,36 Z"
       transform="matrix(-1.0005404,0,0,1.0005404,748.4568,60.76692)" />
    <path
       class="fabric"
       id="fs-1"
       d="m 0,104 v 435 h 225.72 c 0,-157.3 -2.3,-265.59 -2.3,-265.59 -67.8,0 -104.7,-127.18 -73.79,-254.36 L 106.88,8.66 C 83.7,104 83.7,104 0,104 Z"
       transform="matrix(1.0005404,0,0,1.0005404,269.33272,60.766923)" />
    <path
       class="fabric"
       id="fs-1-2"
       d="m 0,103.98397 v 434.99999 h 225.72 c 0,-157.3 -2.3,-265.58999 -2.3,-265.58999 -67.8,0 -104.7,-127.18 -73.79,-254.360005 l -42.75,-10.39 C 83.7,103.98397 83.7,103.98397 0,103.98397 Z"
       transform="matrix(-1.0005404,0,0,1.0005404,262.19254,60.782962)" />
    <path
       class="fabric"
       id="fs-3"
       d="M 0,35.235872 V 538.23587 h 225.72 c 0,-157.3 -2.3,-265.59 -2.3,-265.59 -67.8,0 -104.7,-127.18 -73.79,-254.359998 l -42.75,-10.39 v 0 c -6.65,27.34 -106.88,27.34 -106.88,27.34 z"
       transform="matrix(1.0005404,0,0,1.0005404,755.45741,61.53146)"
       inkscape:label="fs-3" />
  </g>
</svg>
